<svg width="27" height="27" viewBox="0 0 27 27" fill="none" xmlns="http://www.w3.org/2000/svg">
<g clip-path="url(#clip0_21_222)">
<path d="M22.5 4.5H4.5C3.2625 4.5 2.26125 5.5125 2.26125 6.75L2.25 20.25C2.25 21.4875 3.2625 22.5 4.5 22.5H22.5C23.7375 22.5 24.75 21.4875 24.75 20.25V6.75C24.75 5.5125 23.7375 4.5 22.5 4.5ZM22.05 9.28125L14.0962 14.2537C13.7362 14.4788 13.2638 14.4788 12.9038 14.2537L4.95 9.28125C4.66875 9.10125 4.5 8.7975 4.5 8.47125C4.5 7.7175 5.32125 7.2675 5.9625 7.66125L13.5 12.375L21.0375 7.66125C21.6788 7.2675 22.5 7.7175 22.5 8.47125C22.5 8.7975 22.3313 9.10125 22.05 9.28125Z" fill="white"/>
</g>
<defs>
<clipPath id="clip0_21_222">
<rect width="27" height="27" fill="white"/>
</clipPath>
</defs>
</svg>
